/* XPM */
static char *result[] = {
/* columns rows colors chars-per-pixel */
"64 64 10 1 ",
"  c #2C2C32",
". c #323538",
"X c #5A1D8D",
"o c #5F1E93",
"O c #621F98",
"+ c #641F9C",
"@ c #8932B8",
"# c #8E34BE",
"$ c #9636C9",
"% c #A254E0",
/* pixels */
"@@@@##%%%%   +++++++   %%%%%%%%%  ++++@@@+++++++            ++@@",
"@@@@###%%%%   ++++++  %%%%%%%%%%  ++++@@@+++++++            +@@@",
"@@@@####%%%%   ++++   %%%%%%%%%%  ++++@@@+++++++            @@@@",
"@@@@#####%%%%   +++  %%%%%%%%%%   ++++@@@++++++++          @@@@@",
"@@@@@@@@##%%%%   +   %%%@@@@%%%  ++++@@@++++++++++++    ++@@@@$$",
"@@@@@@@@###%%%%     %%%%@@@@%%   ++++@@@++++++++++++    +@@@@$$+",
"%@@@@@@@####%%%%    %%%@@@@%%%  +++++@@@++++++++++++    @@@@$$++",
"%%@@@@@@#####%%%%  %%%%#@@@%%   +++++@@@+++++++++++++  @@@@$$+++",
"%%%#####@@@@#@%%%%%%%%@@#@%%%  +++++@@@@++    ++++++++@@@@$$++++",
"%%%%####@@@@@@@%%%%%%%@@@@%%   +++++@@@++      ++++++@@@@$$+++++",
" %%%%###@@@@@@@@%%%%%@@@@%%%  +++++@@@@+        ++++@@@@$$++++++",
"  %%%%##@@@@@@@@%%%%%@@@@%%   ++++@@@@++        +++@@@@$$+++++++",
"   %%%%$$$$$####%%%%####%%%  ++++@@@@+..    ....++@@@@$$++++OOOO",
"+   %%%%$$$$####%%%%####%%   ++++@@@+...    ....+@@@@$$+++++OOOO",
"++   %%%%$$$###%%%%@###%%%  ++++@@@@....    ...++@@@$$X+++++OOOO",
"+++   %%%%$$##%%%%@####%%   ++++@@@+....    ..+++@@@$X++++++OOOO",
"++++   %%%%%%%%%%@@@#@%%   +++++@@@+........+++++@@@$X++OOOOOOOO",
"+++++   %%%%%%%%@@@@@%%%   +++++@@@@........++++@@@@$X+OOOOOOOOO",
"++++    %%%%%%%#@@@@@%%%%   +++++@@@+......+++++@@@$XXOOOOOOOOOO",
"++     %%%%%%%##@@@@#@%%%%  .++++@@@@+....+++++@@@@XXOOOOOOOOOOO",
"     %%%%%%%@@@@#@@@@@@%%%%...++++@@@@@++++++@@@@@XXOOOOOOOOOOOO",
"   %%%%%%%##@@@@@%%@@@@@%%%%...++++@@@@@@@@@@@@@@XXXOOOOOOOOOOOO",
" %%%%%%%####@@@@%%%%@@@@@%%%%...++++@@@@@@@@@@@@XXXOOOOOOOOOOOOO",
"%%%%%%######@@%%%%%%%@@@#@%%%%...+++++@@@@@@@@++XXOOOOOOOOOOOOOO",
"%%%%########%%%%  %%%%@#@@@%%%%...++++++++++ooooOOOOX#######++++",
"%%%%######%%%%%    %%%%@@@@@%%%%....     +++ooooOOOOX#######@@++",
"%%%%####%%%%%       %%%%@@@@@%%%%...      ++ooooOOOOXX######@@@+",
"%%%%##%%%%%     ++   %%%%@@@#@%%%%%.       +ooooOOOOXXX###++@@@@",
"%%%%%%%%%     +++++   %%%%@###@%%%%%%%%%   +OOOO+++++XX###++O###",
"%%%%%%%     ++++++++   %%%%@###@%%%%%%%%   +OOOO+++++XX###++O###",
"%%%%%     +++++++++++   %%%%@###@%%%%%%%   +OOOO+++++XX###++O###",
"%%%     ++++++++++++++   %%%%@###@%%%%%%   +OOOO+++++XX###++O###",
"      ++++++++@@@@+++++   %%%%@#@@@@%%%%   +OOOO+++++XX$##++O@@@",
"    ++++++++@@@@@@@@++++   %%%%@@@@@%%%%   +OOO++++++XX$##++O@@@",
"+++++++++++@@@@@@@@@@++++  %%%%%@@@@%%%%   +OOO++++++XX$##++O@@@",
"++++++++++@@@@@++@@@@@+++   %%%%@@@@%%%%   +OOO++++++XX$##++@@@@",
"++++++++@@@@@@....+@@@@++   %%%%%%%%%%%%   +OOOO++++XXX###++@@@O",
"++++@@@@@@@@+......+@@@++   %%%%%%%%%%%%   XOOO+++++XX####++@@@O",
"@@@@@@@@@@@+........@@@@+   %%%%%%%%%%%%   #XOOO++++XX###+++@@@O",
"@@@@@@@@@+++........+@@@+   %%%%%%%%%%%%   #@XOO+++XXX###+++@@@O",
"@@@@@+++++      ....+@@@+...               #@@XO+++XX@@@#+++@@@O",
"+++++++++       ....+@@@++..              +#@@@X++XXX@@@++++@@@O",
"++++++++        ...++@@@+++.             +++@@@@XXXX@@@#++++@@@O",
"++++++++        ..+++@@@+++++++++++++X####++O@@@@XX@@@@O+++@@@@O",
"++++++++    ....+++++@@@ooooOOOOoooo++X@$$$O++@@@@@@@@+++++@@@OO",
"++++++++    ....++++@@@@ooooOOOOoooo+++X$$$$+++@@@@@@++++++@@@OO",
"+++++++++   ...+++++@@@+ooooOOOOoooo++++X$$$@+++@@@@+++++++@@@OO",
"++++++++++  ..+++++@@@@+ooooOOOOoooo++++OX$$@@+@@@@@+++++++@@@OO",
"   ++++++++++++++@@@@@oo++++OOOOOOOOOOOO++X@@@@@@@@+++++OOO@@@++",
"    +++++++++@@@@@@@@ooo++++OOOOOOOOOOOO++XX@@@@@@++++++OOO@@@++",
"    ++++++++@@@@@@@@oooo++++OOOOOOOOOOOO+XXX@@@@@+++++++OOO@@@++",
"    +++++++@@@@@@@$+oooo++++OOOOOOOOOOOXXXX@@@@@++++++++OO@@@@++",
"       +++@@@@$$$$++OOOOXXXX++OOOOOOXXXXXX@@@@++OOOOooooOO$$$OOO",
"        +@@@@$$+++++OOOO##XXXXXXXXXXXXXX@@@@@+++OOOOooooOO$$$OOO",
"        @@@@$$++++++OOOO###XXXXXXXXXX###@@@@++++OOOOooooOO$$$OOO",
"       @@@@$$+++++++OOOO####@@@@########@@@O++++OOOOooooO$$$$OOO",
"    ++@@@@$$++++OOOO++++@@@@#############+++OOOOOOOOOOOOO$$$++++",
"    +@@@@$$+++++OOOO++++@@@@##########++++++OOOOOOOOOOO#$$$$++++",
"    @@@@$$++++++OOOO++++@@@+++++++++++++++++OOOOOOO#####$$$$++++",
"   @@@@$$+++++++OOOO++++@@@++++++++++++++++#############$$$+++++",
"++@@@@$$++++ooooOOOO+++++@@@OOOOOOO#$$$$################OOOO++++",
"+@@@@$$+++++ooooOOOO+++++@@@@@@@####$$$$############OOOOOOOO++++",
"@@@@$$++++++ooooOOOO++++++@@@@@@####$$$$####OOOO++++OOOOOOOO++++",
"@@@@$+++++++ooooOOOO+++++++@@@@@####OOOOOOOOOOOO++++OOOOOOOO++++"
};
