/* XPM */
static char *result[] = {
/* columns rows colors chars-per-pixel */
"64 64 38 1 ",
"  c #0B0506",
". c #0E0708",
"X c #0F0809",
"o c #100709",
"O c #140B0C",
"+ c #190C0E",
"@ c #1B0E11",
"# c #1E1113",
"$ c #210F12",
"% c #241215",
"& c #291317",
"* c #271418",
"= c #2D151A",
"- c #2F181C",
"; c #32171C",
": c #34181D",
"> c #381A1F",
", c #361B20",
"< c #3B1C21",
"1 c #3F2127",
"2 c #411E25",
"3 c #432026",
"4 c #482227",
"5 c #462229",
"6 c #4B252C",
"7 c #4E282F",
"8 c #51272F",
"9 c #52282F",
"0 c #4E2A31",
"q c #512730",
"w c #532B32",
"e c #5C2D36",
"r c #573037",
"t c #593037",
"y c #5C323A",
"u c #62333C",
"i c #673740",
"p c #693942",
/* pixels */
"pppppppeieepeeeeeeeeeeeeeeeey1X@0puppppuuutuuueeeeeeyeeeeeeee6@+",
"pq5664524<<52<222<<2<22<2<22,*O@0774755343>42>>2222<<<2>222>>:O+",
"p5:::::>,:::;:;:;;;;::::::;:-%O#01,::::::::::::;==;;;>::;::;-%O+",
"u5:::::,,:,>>:>:>;$;:>:>>:>:-*OO---=;:::>::::>:::+$;>:>:>;;:-*O+",
"y5:,,>,<<<<<<:<:;=$=>;>>>>,,*%O@3%&;>:<<>>>>>>>:;&$&>><>>:-;**@@",
"y5>,<,,,<<<<><<<>&&&>>>>>>,;=#X@w;#;><<,>><<>>>:;$+;:>2<;O&=-*+#",
"w<>>:>:>,,,,<<::;=$&>>>>>::-%#O@1$%=;::>>>>>>>>:;+&;<<2<=##&*%O@",
"t5:::;;;,,,,<<;<;;@&;>>;;;;-##X@5&&->1::::>;>>:>$$;:>>>>:%@--#O@",
"q<:;;;-;;:,<,<;;;&$;>:>>;;-&#@..:-&;:,::;;,;;>;;$;=><<>:=%O%#%OO",
"6,;;==;;;:::::;;&+;=::;=;;=$+X O3<:;;;;:;,:;;>;=$%>:><:-&$++%+OO",
"4,;;;=-;;;::::;&#;-,;;==-==#O.X@2>:;;;;;;,;;;;;;&+&;::;-&#O+%#O@",
"6,;;;=;:;:--&&=&@%--&=&==*%#@X.@2>::;;;--;--;;;;&+=;-***&#OOO@O+",
"8;;=-;=;==&$$+++@#**%%%%%##+@O.@4>;-====-=-=-=%@+O*%%%%##@OXOOOO",
">&*&=&&&%@@@++@$%##%%%%#####OooO:&*&*&***%%%%##O+#%%%##@@@#+oOOO",
"OOO+@@@@o. oOoooOXO@@++++OOXo.ooOOOOOOOO++OOOX..XXOOOXOOOOOXX .O",
"##@%$$@@OO@@@@o+@###%#%####@oO@#@#@#########@O.X@###%#######@OO@",
"qq7qwwqq-999w>O#yyyyrtr9e9944499qq88wqqqqq996*XOryyyyyyweeqe7,,5",
">>>>>:>>:>>:;&O#y51;-1<>2>:2>>>>>:>:>::,>>>>:#OOr055133<<<><>-$=",
";>;>:;::::::;*O#u5:%+$;:;:::>;>;:::;::;>>:>;-*X+w7<:::::>:::;;$=",
";;:;:>:>,:::=*O%y1,;;&+;;::;;;;;::::::>;::;;-*O+r6,:::::::>;;;&=",
"::::>:>:;,,;-*+#e2:;&&+$;::;;;;;:::;:;>;;:>==*O+06>;>>:>::::>:;;",
":::::>,>,,,-**+%y2:;&$+&;:::;;-;;::>::,>>:>=-*O@05>>;>>><>>:;;;;",
";:::>,<::;--=*@%9>>>&$o&;::;;=--::;>>>>:>;;=*&+O61>>:>>>;:::::;;",
":;:::::::;;;**O%e2:;&+&&=;:;;;-;::::::>>;;;=&*+#05>;:==:;;::;;:;",
";;:::;:;;--=&%O#w>==$$=;;-:;:-;;;::::;:::====%+@42,;:--:;;;;;;;;",
";:;;;:-=-&=&%@O#6;&$#;;;;:;;;;;;::;>:---=&==*%O@2<>;;;--;;;;;-;;",
";;;;-=*=&&&&#@O#6$$$:;;;:-:;----;;=;=-==&==*%%O@2<::;;--;;;;;;;;",
"--&-==&%&&&*#@O#2;$$*;;;;;;;---=&==&&=&%****%%OO2<:;;;--;;;=-===",
"&******=&%%%#@O@6&%O$;--==*=*******%%%&%%#%%##O@2,;;-====***%&**",
"%%#*%%%%%%###@O+>$+O+%**%%*%%%%##%%%%%%%#####@O@,=&%*#******$%%*",
"OXOXOO@+OOOOOOOXo.. +OO++OOOOOO@OOO@oO@+@OO@O+OXXOOOOOOOO+OO+O@@",
"@+@@#@@@@@#@@@++O+oo+@@@@@@@@OOO@O@@@@@@@@@@@@@O@@+@@@@@@@@@++O+",
"rtyyyye8e88e86862;>2488897990,OOrrrywyy7eq8eqq777886868882882<o@",
"p642442222>22>>>2><<2<<<>>1<,*O@r065655<22<33<<<<><<>22>22>2<;O@",
"p6<>,,>>>,>>>=&=::>>>;:>>>:,-*O@r6<>>><,:;>>>>>::&&;>>>>::::;-OO",
"u5:::>>;:>;;&&+$&>>>>;::;>:;-%O#01*===;:;$&;>>::=+$;;>:;:::;;*@+",
"y2,,;::>:;:&$OO$&>><;>:::::=*%O@w<$$;==;&+&>,<>&&++&=;>;::;--&O@",
"y2;,:>:;:::&+.+=$2<<::::::;;%%X@7>$$=;==&$;><<<;&oO$;;;;;;--&%O@",
"e<;<:::>:;;&++$;%<<<::;>;>=%#@o@3=+=;;;==$::<<2;&o+$&;;;:;=&%%O@",
"q2;;;>;;;:;$$&+$;<<,:::;;;=%@@oO:%;=;;==$@;<<<<;&+&&&;;;;;-&%%O@",
"e,;;:;>;;>;$+&;;:>:-:;:;==@%@o o*<>:::::;+&;>>>;++=;:-:;=$@@$$O@",
"6<;:;;;;;;&++$&&*::;---=*%O+...O<<>:;;::;&$&;;;;&%;;;;-:&@O@@$O@",
"2>;:;;;;;;=@%&$$&;=:=-=*%%OoO o@<>:;::::;;$$&=;=$$>;--**%%+O@@@@",
"8>;;;;;;;%&%&;&$=%==&&**&#OOOoO@2>>::::;;;=&+@$%+$==*&**=@@X@@O@",
"6>=---==%@+#%**%%O++%*%%#OoOO@O@3>;-==--;;=%O+O+$%*&%*%#@@@O+@o@",
"1&****%+O@%%%%%%#OX+###+@@o+@@O@>=***&**&$%%O+O@%%%**###@@Ooo@O@",
"OOOOOOO XOXXOOOXXX  .OOOXX.OOOOOOOOOOOOO+oo  ...XOOOOOOOOo. OOoO",
"@O+@+++OOO@@@+OOO+OX.++OOo.OO@OOOOO@O@O@+O+OoO.OO##O+++@+OXOOO+@",
"5646422>26288,o@990:-0745:;r465626446644665>1,XOywr09qw6w6266646",
"333<<>==>222<&o@y91-176>-*>533332222222<22<21=O+ww77887355<35<22",
">>>>>;+&;<><;*O%y>&$:<-%-:>><>,<<<<<,,,>>>>>;&OOw71<>><>,>>><,,,",
":>;>;;&+<:>:-=O%y2=;;:;;::::<:::,,::::::=;;--*O#r6,:::::%%%$::::",
">;:::&+$,1,:-%@%u3::::>>:<1:><,,,<:::;;;=;=-=*OO07>>%=::oo@$&;>;",
"::::=$&;,<,,-%o%e2>;::>>:<:1<:,,,:<:,;;;;=-&&*O@05>%$=;&&+o$;>;>",
":>;;&$&;,<,-=$O%9<::::>:::>::,::>>:;;;--;-&&*%O+55;+&;=$$o$;::;>",
":;>;:&&&,,--=%O%e<;::>::>,:::;;:;;;;;;=--;****@+05:&++++$;:>>>;;",
";;;;;;=+%--=%%O#e>>;:>;>:;;;;--:;;=;;;==-=**%%O@82::@oo$;,<<<,;;",
";;;;-;=%@%=%$@O%4;&&:;>;:;;;;::-;;;==*=*=**%%@O@22>;@oo$=<<<<,:;",
";;-=&-**%@O@@@O%4;%&:>;:-;;;:;--=;===-*=*%%%%@OO22:&@@$$,<,::;::",
"----&&**%@oO@@O@4=+&;::;;;----=-&;==*%%%&%%%#@O@2>:+$&$,,:::;-=-",
"-*******#XXX@@o%1@@&=------*-***=***%%#%#%#@@@O+22&+$-=;-,-;--=-",
"%%%%*####@X@@@O+-#@***&*****###**##*%$#@##@@@@.X&$+$%*&*%&%*%%%%",
"OO@O@XOOOX XOOO.OOXOOOOOOOOOOOOOOXOXOOOOOOOOoO  .oooOOOOOOOOOOOO",
"@@@@@@@@@@@O@++OOO++@@@@@@#@@@O@@@@@@+@@@+++OO.OOO+@@@@@@@@@@O@@"
};
