/* XPM */
static char *result[] = {
/* columns rows colors chars-per-pixel */
"64 64 33 1 ",
"  c #0F0709",
". c #110709",
"X c #130B0C",
"o c #190D0F",
"O c #140D10",
"+ c #1D0F11",
"@ c #151010",
"# c #1E1113",
"$ c #210F12",
"% c #231215",
"& c #291317",
"* c #261418",
"= c #2C1519",
"- c #2F181B",
"; c #32171C",
": c #34181D",
"> c #38191F",
", c #341A20",
"< c #3B1C21",
"1 c #411F25",
"2 c #432027",
"3 c #482127",
"4 c #462229",
"5 c #4D252C",
"6 c #4F282F",
"7 c #50272F",
"8 c #51282F",
"9 c #4E2A30",
"0 c #542B33",
"q c #592F37",
"w c #592F38",
"e c #593037",
"r c #5A3038",
/* pixels */
"X##%%%%#%####%o.@###*#%####%&##%##%#%#+%$$%$+%+XX##**#*#######o.",
"#qeewwee005575>X#eeeee990060885755575575775555>o#0eereee0e6655>X",
"#e4411<<,,>>::&X*e42245542<<<>>>>>>>>>>:>>>>::&X#r42211<<<>:::&X",
"*e4,:>,:::;;==&X#e2>,,,:;:::>::;:;::;;;::;;;==&X*e2>:>:>>::===&X",
"#e4,::::::;;;=&X#r2>;>:::::::::;:;::;>;;;;;;==&o#r2::::::;;;==&X",
"*e<:::::::;;==&+%e2::;::::::::::>;::;;;>;;;==&&o#r1::::::;;;;=&+",
"#w<:::::;=;==&&X&5>>::>;::::::::;;>;:;;:;;===&&X*0<,::::;;;;;=&X",
"%6<,:::=;=;;=&&X=3>>;:;::::::::;;>;::>;;;==&&&%X#6<<--==;==;==%X",
"&5<;;;;;=====&$X%5>>::>;:::::::::::::-::==&&&%$X%8>::;-=====;&%.",
"=3>>;;;====&=&$X#8>:::;:;>;;;::::;;;:====&&&&%$X%8>:;-=====;&&#X",
"%2>;===&==&&&&oX$3>:-;;:::;;::;:;;;=====&&&*%%#X+3>>;====&==%%+.",
"#4>;==&&==&&&%oX$3>::;:::;;:;;;;;;===&*&&&%%#%oX#3>::=&====&$%+X",
"#3:;==&%&&%%$ooX#3:;;;;;;;;;-==-=&*=&%%%$$$$%+XX%3:;=&%&&&&%%$o.",
"#4;=&&%&&%%%o$o.#3--;==&;;=&==&&&%%%%%##+%$$$++.+3;==&%%%%%++ooX",
"+;&%%%%$oo+oooo.o:&&&%&&&$&$%###%%#%####+O+Oo+oX@:&%&%$+++ooooo.",
".X.XXX..XXX.XXXX.X..X...XXXXXXXX..XXXX.XXX.X..X.XXXXoXXXXXX XXXX",
"X##**#*#%%$$%+@X.XXoo.oXXoXXXXXXXXXXXX  .....XXXX+#**#*####%##+X",
"#eeeee0e808555>oX.XXooXooooooXXXXXXXXXXXXXXX.XXX+eeee0900e8656:X",
"#r522<<<>1>>:;&XXXXooo+o++#@oooo+XXXXXoXoo+@oo++#r42444422<,::=X",
"#r2,::,:;>>;;=&XXo+$#$$%%%*#$o+##+@@#++%%+###+#%*r2>>>,:::-:==%X",
"#e2::::::::;==&Xoo%&=*==--%%######**=--;:=====*%#r2:::::::::;=&X",
"*e2::::::;:;==&ooo%=====--***#####*----;--===****r2:::::::::;=&+",
"#r2:::::::;==&&ooo#&=-********###***-&=&-*===*%*#r2::::::::===&+",
"#r1::::::::;;=&Xoo#%&-****%*#*#%*-**&*--&==*%%*&#r2::::::::;;=&o",
"*e4::::::::;;=&oooo$===*****%***-*-&&&-%&*===%%%%q1:::;::-:;;=&o",
"#e1:;::::;;;==&o.oo%*=-=**%-*%*=*=-*-**%&==*&&&%%q1:::::::;;;&&o",
"#e1,::::::;&&&&oXo+#%*-=-***&-*=-**&**%**=&=&*%%$e3:::::::;==&&.",
"%q<:::::::;;&&&.oX+#**---*-*-*=**=-*-**-*==&%%%&%01:;:::::--;&&o",
"#0<::::::;=;&&&.Xo$%=;=---=&===*---,-,:-,-,::=&%$e1:::::;;;;=&%.",
"#5<::::::;;==&&Xoo$&&===--==&--&--,--,,,,:,,;=%%#8>;::;:;;;&;&&X",
"#5,::::::;=;&&&X.o%&;==-%=----=-***-----:-;;&&%%%8>>:::::;&;&&%.",
"*4,>::::;;===&$.oo$&====--=-====-*=*===--;:==&%%$51::::::;;;&&%X",
"&3<:::;;;=;&=&$.X+$=X@XX@@@X&-----**o@X@@@XX=*&$$41::::::;:&&&$X",
"&5<::;;;;=;;&&$oXo%=X@X@X@X@&&*&*=-&@X@@@O@O==%%%51::::=:==&&&$X",
"%9<::;;;;==;&&$.Xo%-@@#@@@XX--=*==--OX@@@OOO=*%%$51>:::;:;&=&&$X",
"#8<:;;;;;==&&&%XXo#*X@@@@@@@*--=-*==O@@XO@OO==%%*51:::;;===&&&$X",
"%8<::;;;:===&%+XX+&&::,-****=*=**&=-*==-=---=&&%%5<>:::;==&&&&$.",
"#9>:;;=====&&&$.X$&:-:-=*-***%==--*-=**=--,=--%$#6<:;:;;==&&&$$o",
"#8>:;;;;-==&%%$X.X+$%****--%**%=-%=*-*=***#+$#%$#5,:::;&==&&%&+.",
"#3>:;;=&&=&&&%oX.Xo$%*-*=&*=&**&*--=*-==***#++++%5<>;;&;=&&&%%$.",
"#3<:;;==&&=&$$oX.oo$%&&&OO@O@OOOX@@@X@O@***##++%$3>>:;===;&$&$o.",
"#3>;;;&;&&&&%$oX.Xo%&&**@XO@OO@@X@X@OOO@*%&%++++$3>:;;==&&&&$$oX",
"#3>>;;;&&&&%%$o..X$$**=*@OOOO@@O@@X@OOXO==%%++o$+3:;:=&&&&&&$%oX",
"#3>>;&&&&&&%$$o...o$=**=XOOOXXX@@X@XOXOO=&*=$+o+#3>;-=&&&&$$$$o.",
"$3:;&&&&&%$$#+oX.X+%**=%*&%*&=&%##**=&=--==:=%$o$3:;=&&&&%%$%$oX",
"$3;&&&&&%$$$++o.XX+#&***&&%%%%%%*#%%*%===***%#Oo#3;=&&%%%#$++oo.",
"o-&&&$+++ooooooXXXo%%*%%%%%%%#%$#%%%%%%%%%+++XoXo:%%&#$$o$oooooX",
"XX..X.X.XXXXXXX.oo+%%%*%%%$%%%%$%##%%$$$###+Ooo+XXXXXoX.XXXX.XXX",
"X+#%*#***####%+XX###*##%####%%+%##$$$#$#######oXX+##*#*##*###%+X",
"#eeere09506665:X#eeerree0q86q87585588577858855>X#errree96e6555:X",
"#r42222<><<>::*X%r424211<<,>>>>>>>>>>>>>>>>>>:&X#r4222<<<<<<::*o",
"*r3,::>::>::==&X%e2>,,:::>::::>;;;>;;;;>;;;:==&X*r3,:>>::::::=*X",
"#r2:::::::::==&X%e2::;::::;>;::;;;;>;;:;;:;;==&o#r2::::::;:;-=&o",
"%r2>::::::;:-=&o%r2;:>;:::::::::;>;;;;;>;;;==&&o*r2::::::;;;--&o",
"%0<:::-;;-;=-=&X%0>>:::::;>:::;:>;>;:;:;;;=&==&X#e2>:::>;;;;-=&X",
"#0<:::;-;;;=&&%X%8>;>;::::;:::>;;:::::;;;;=&&&$X#0<>::-=;;=;==&.",
"%8>:;>:;=:==&&%.%6>:::::;:;::::;::::;;;;-&=&&%$X#03>:;;;;&;&&&$X",
"%8>:;;=====&&%$o%8>::;;:>>;;;::>:;;;;=====&&%&$o%8<>;;=;&;;&&&$X",
"$3>;;;=====&&%o.#3::;-::;:>;;::;;;;=====&&&&%%o.#3>>;===;;&&&%+.",
"#3>>===&=&&&%%o.#3>:::;::;;;;;;:=;==&&&=&&%%%$oX#3>:;=&=&&&%$%oX",
"$3:-=&&&&%%%$$oX#3::::;;;;;;--====&&&%*#%$#%%+oX#3>====&&&$$$+o.",
"#3:==&&&%%%+ooo.+3;==========&&&%&%%*%%##+#$++o.#3;=&&&%$#$$++o.",
"o:&%%&%$o+ooooo.+:&&&&%%%&&&#$#####%#$ooooooooo.o-&%%%$$$ooooooX",
" XX.XX.o..XXXXXX.X....o..X..XXXXoXXXXXXXXXX.XXXX.XXXXXXXXXXX.XXX"
};
