/* XPM */
static char *e27d369fc6b24de7981a006fef871165ihTGUDDhcKvsNSnC[] = {
/* columns rows colors chars-per-pixel */
"64 64 67 1 ",
"  c None",
". c black",
"X c gray11",
"o c #202020",
"O c #282828",
"+ c #2C2C2C",
"@ c gray19",
"# c #343434",
"$ c gray22",
"% c #543C1C",
"& c #5C4020",
"* c #6C4824",
"= c #000070",
"- c #004040",
"; c #005858",
": c #006C6C",
"> c #007070",
", c #007878",
"< c #007C7C",
"1 c gray25",
"2 c #484848",
"3 c #4C4C4C",
"4 c gray33",
"5 c gray36",
"6 c #646464",
"7 c gray44",
"8 c #80502C",
"9 c #885830",
"0 c #905C34",
"q c #9C6038",
"w c #A0643C",
"e c #A86840",
"r c #B47044",
"t c #BC7848",
"y c #C87C4C",
"u c #FC8820",
"i c #D08050",
"p c #DC8854",
"a c #FC9840",
"s c #E88C58",
"d c #F0945C",
"f c #FCA85C",
"g c #FC9C60",
"h c #FCA470",
"j c #008484",
"k c #008C8C",
"l c #009898",
"z c #009C9C",
"x c #00A4A4",
"c c #00B4B4",
"v c #00CCCC",
"b c #00E4E4",
"n c #7CFCF8",
"m c #989898",
"M c gray66",
"N c #FCB080",
"B c #FCB890",
"V c #FCBC9C",
"C c #FCC4A4",
"Z c #FCCCB0",
"A c #FCD4BC",
"S c #B8FCFC",
"D c #C0C0C0",
"F c #D0D0D0",
"G c gainsboro",
"H c #FCD8C4",
"J c #FCE0D0",
/* pixels */
"                             pgCZCgp                            ",
"                           pgVCZHZCVgp                          ",
"                          pgNCZAJAZCNgp                         ",
"                          ghNNCZHZCNNhg                         ",
"                         pghhNNBCBNNhhgp                        ",
"                         phhgVVNNNVVghhp                        ",
"                         uhr%8yhhhy8%rdu                        ",
"                         uhVD=4&9&4=midu                        ",
"                 cjjjj  rahBNNhhgtsNNNda9  jnjjj                ",
"                n-X2+X; 8fhBCCNiiwhVVhdf* j-X2+X;               ",
"               c-X2M6+o-rpgsgrdhdhdrdpir9j-X2M6+o-              ",
"               j-X262+o-.pgsgrDFGFDrdrir.j-X262+o-              ",
"                ;-o++o-$$pgsgyDFGFDydrir..;-o++o-               ",
"                 ----- ...ghghghhhghdpr... -----                ",
"                  j -  ...mphhhsyshhdr8...  j -                 ",
"                 jb>j> ...7qreq000888*%... jb>j>                ",
"              22vSvvvS>...7qyrryrre888*...vSvvvS>222            ",
"           22333j;;;;;;;..oO8eesite88%O..+;;;;;;-33332@         ",
"         22333222-------++o$@O%888%%OOoO++-------22231$@@       ",
"        2233322111-1-111$$@+@$@@+OOOOo@@$$11-1-11111111$@@      ",
"       2233322111111111111111@+oooooo@11111111111111111$$@+     ",
"     44454442111111111111111111O@@21111111111111111112332222$   ",
"     $$@+++ooooo111111111111111O@@2111111111111111ooooo+++@@@   ",
"      ........ooO$11$$$$$$$$$$$O@@2$$$$$$$$$$$$$$Ooo........    ",
"     @$12211$@..ooO$$$$$$$$$$$$O@@2$$$$$$$$$$$$Ooo..$222221$    ",
"     @@+oooooo+...oO$$$$$$$$$$$O@@2$$$$$$$$$$$Oo...$oo++++oo@   ",
"      @12211$@oO...oO$$$$$$$$$$O@@2$$$$$$$$$$Oo...Oo$221$@@+o   ",
"     7$12211$@+o....ooooooooooo....ooooooooooo....o+1221$@@+6   ",
"     2122211@+Oo ................................ O@1221$@@+2   ",
"     $12221$@+o  oooo++1$$$$$##@++1$$$$###ooooo.. O@$1221$@@+6  ",
"    7$12221$++o   ooo++#+++++++o++#+++++++.ooo..   O@>kkk>;@@2  ",
"    $@11;:kk<;     ooo++oooooooo+++oooo....oo..    O>lllkj>-++  ",
"    ooO;:kj<<>;     o1$++++++++++++++++oooooo.     >jlkjjj>;-o  ",
"   ++O-:<j,xx,;-    o+111122222222211$$###@+oo.    >jkjxk>>;-o  ",
"   Ooo;:<,kk::;-     ooooo+112222211$+.......o     ;>jx<<;>;-o  ",
"   oOO;><,k:::--   $$++OOooo..+###++o.+$$$$@@@O    ;>>x<<<;>-o  ",
"   OO-:,<>k:::--  $OOooooOOOoo......@$@+ooooo@@@   ;>>x<<<;>-o  ",
"   OO;:<,><::;-- $O$$++OOoooOOoooo.@.oo+@@@++o.@o  -;,x<<<;>-o  ",
"   OO;:<><:::;-- O$$$@+OOOOOooOooo@.O+@@$$@@+OO.o  -;,x<<<;>-o  ",
"    O;><><:::-- o$$$$@+OOOOOoooo...OO+@@$$@@+OOo.  -;,x<<<;>-o  ",
"    O:,<><:::-- $$$$$@+OOOOOoooo..oOO+@@$$@@+OOoo  -;,x<<<;>;-  ",
"    ;:<,:<::;--  $$$$@+OOOOOooo2.6OOO+@@$$@@+OOoo6  -,x<<<;>;-  ",
"    ;><><:::;--  $$$$@+OOOOOooo+.$OOO+@@$$@@+OOoo$  ->,x<<;>;-  ",
"    ;++++++---   $$$$@+OOOOOoooo.OOOO+@@$$@@+OOoo   -;>;-+++++  ",
"    +;>j>;-++-   $$$$@+OOOOOoooo.OOOO+@@$$@@+OOoo   -++++-o-+   ",
"     >jcj>--++   $$$$@+OOOOOooo2.6OOO+@@$$@@+OOoo6  -o-j>>;-++  ",
"     >zcj>-+o    $$$$@+OOOOOooo+.$OOO+ooooooooOoo$   ;>vz>;-++  ",
"    >jcz>;-+o    $$$$@+OOOOOoooo.oOooo@$$1@++Ooo.    ;>zvj;-++  ",
"    >jcj>;-+o    $.......oOoooo.oo.O+@++@@@++OOOo    ;>zvj>-++  ",
"    >jcj>--o    $.$$$++Oo......ooo.OOO++@@@++OOOo    ;>zvz>;-+  ",
"    >zcj>-+o    $$$$$++OOOOoooo.oo.OOO++@@@++OOOo     ;zvz>;-+  ",
"   >jcz>;-+o     ooooooooooooo..oo...............     ;zvz>;-+  ",
"   >jcj>;-+o     ooooooooooo....o oo+@$$1$$@++Oo.     ;zvz>;-+  ",
"   >jcj>--+       oooo..........o oOOOOOOOooo....     ;>-++oooo ",
"  +++++--+o         ooo.........o o+@$121$@+OOoo      +++oooooo ",
"  oooooooooo          oo........o o6@$121$@+OOo4     o++o;--.$o ",
"   -o-$+oooo          $$ooooo...o  2@$$21$@+Ooo+     oo;-ooooo  ",
"     ---o+o           ooo.......o   @OOOOOOOooo        ooooo    ",
"                      $3@++OO..o    O1111111$$O                 ",
"                      $+oooo...o   @11++++++++$@                ",
"                       1ooooooo664@1@333221111+@22222222444466  ",
"                    6666644422$$++12332211++++1@++++++$$$224466 ",
"                        6666442222233221333331+@$$444466666666  ",
"                                                                "
};
