/* XPM */
static char *_2c35f3444b846c3dbf73e8dd059c85aGh1u2yTV9kXKDfqO[] = {
/* columns rows colors chars-per-pixel */
"64 62 256 2 ",
"   c black",
".  c #0000A8",
"X  c #00A800",
"o  c #00A8A8",
"O  c #A80000",
"+  c #A800A8",
"@  c #A85400",
"#  c #4C4436",
"$  c gray33",
"%  c #5454FC",
"&  c #524A42",
"*  c #5E5246",
"=  c #736352",
"-  c #685D4C",
";  c #FCFC54",
":  c gray99",
">  c #ECECEC",
",  c gainsboro",
"<  c #D0D0D0",
"1  c #C0C0C0",
"2  c #B4B4B4",
"3  c gray66",
"4  c #989898",
"5  c gray55",
"6  c #7C7C7C",
"7  c gray44",
"8  c #646464",
"9  c gray33",
"0  c #484848",
"q  c gray22",
"w  c #2C2C2C",
"e  c #202020",
"r  c #FC0000",
"t  c #EC0000",
"y  c #E00000",
"u  c #D40000",
"i  c #C80000",
"p  c #BC0000",
"a  c #B00000",
"s  c #A40000",
"d  c #980000",
"f  c #880000",
"g  c #7C0000",
"h  c #700000",
"j  c #640000",
"k  c #580000",
"l  c #4C0000",
"z  c #400000",
"x  c #FCD8D8",
"c  c #FCB8B8",
"v  c #FC9C9C",
"b  c #FC7C7C",
"n  c #FC5C5C",
"m  c #FC4040",
"M  c #FC2020",
"N  c #FC0000",
"B  c #FCA85C",
"V  c #FC9840",
"C  c #FC8820",
"Z  c #FC7800",
"A  c #E46C00",
"S  c #CC6000",
"D  c #B45400",
"F  c #9C4C00",
"G  c #FCFCD8",
"H  c #FCFCB8",
"J  c #FCFC9C",
"K  c #FCFC7C",
"L  c #FCF85C",
"P  c #FCF440",
"I  c #FCF420",
"U  c #FCF400",
"Y  c #E4D800",
"T  c #CCC400",
"R  c #B4AC00",
"E  c #9C9C00",
"W  c #848400",
"Q  c #706C00",
"!  c #585400",
"~  c #404000",
"^  c #849C7B",
"/  c #738C6B",
"(  c #6B7B63",
")  c #637352",
"_  c #5A6B52",
"`  c #525A4A",
"'  c #4A5242",
"]  c #425239",
"[  c #394A39",
"{  c #313931",
"}  c #313929",
"|  c #293129",
" . c #293121",
".. c #212921",
"X. c #182118",
"o. c #181818",
"O. c #00FC00",
"+. c #00EC00",
"@. c #00E000",
"#. c #00D400",
"$. c #04C800",
"%. c #04BC00",
"&. c #04B000",
"*. c #04A400",
"=. c #049800",
"-. c #048800",
";. c #047C00",
":. c #047000",
">. c #046400",
",. c #045800",
"<. c #044C00",
"1. c #044000",
"2. c #C8BFB2",
"3. c #A89A85",
"4. c #9A8C77",
"5. c #7CFCF8",
"6. c #5CFCFC",
"7. c #40FCFC",
"8. c #20FCFC",
"9. c #00FCFC",
"0. c #00E4E4",
"q. c #00CCCC",
"w. c #00B4B4",
"e. c #009C9C",
"r. c #008484",
"t. c #007070",
"y. c #005858",
"u. c #004040",
"i. c #94846B",
"p. c #8C7B67",
"a. c #847B63",
"s. c #81735D",
"d. c #7B6B5A",
"f. c #007CCC",
"g. c #006CB4",
"h. c #005C9C",
"j. c #736B5A",
"k. c #736B52",
"l. c #9C9CFC",
"z. c #7C80FC",
"x. c #5C60FC",
"c. c #4040FC",
"v. c #2024FC",
"b. c #0004FC",
"n. c #0000FC",
"m. c #0000EC",
"M. c #0000E0",
"N. c #0000D4",
"B. c #0000C8",
"V. c #0000BC",
"C. c #0000B0",
"Z. c #0000A4",
"A. c #000098",
"S. c #000088",
"D. c #00007C",
"F. c #000070",
"G. c #000064",
"H. c #000058",
"J. c #00004C",
"K. c #000040",
"L. c #282828",
"P. c #FCE034",
"I. c #FCD424",
"U. c #FCCC18",
"Y. c #FCC008",
"T. c #FCB400",
"R. c #B420FC",
"E. c #A800FC",
"W. c #9800E4",
"Q. c #8000CC",
"!. c #7400B4",
"~. c #60009C",
"^. c #500084",
"/. c #440070",
"(. c #340058",
"). c #280040",
"_. c #FCD8FC",
"`. c #FCB8FC",
"'. c #FC9CFC",
"]. c #FC7CFC",
"[. c #FC5CFC",
"{. c #FC40FC",
"}. c #FC20FC",
"|. c #FC00FC",
" X c #E000E4",
".X c #C800CC",
"XX c #B400B4",
"oX c #9C009C",
"OX c #840084",
"+X c #6C0070",
"@X c #580058",
"#X c #400040",
"$X c #FCE8DC",
"%X c #FCE0D0",
"&X c #FCD8C4",
"*X c #FCD4BC",
"=X c #FCCCB0",
"-X c #FCC4A4",
";X c #FCBC9C",
":X c #FCB890",
">X c #FCB080",
",X c #FCA470",
"<X c #FC9C60",
"1X c #F0945C",
"2X c #E88C58",
"3X c #DC8854",
"4X c #D08050",
"5X c #C87C4C",
"6X c #BC7848",
"7X c #B47044",
"8X c #A86840",
"9X c #A0643C",
"0X c #9C6038",
"qX c #905C34",
"wX c #885830",
"eX c #80502C",
"rX c #744C28",
"tX c #6C4824",
"yX c #5C4020",
"uX c #543C1C",
"iX c #483818",
"pX c #403018",
"aX c #382C14",
"sX c #28200C",
"dX c #600064",
"fX c #006464",
"gX c #006060",
"hX c #00001C",
"jX c #00002C",
"kX c #302410",
"lX c #480048",
"zX c #500050",
"xX c #000034",
"cX c gray11",
"vX c #4C4C4C",
"bX c gray36",
"nX c gray25",
"mX c gray19",
"MX c #343434",
"NX c #2E2B22",
"BX c #B8E8E8",
"VX c #9CDCDC",
"CX c #74C8C8",
"ZX c #48C0C0",
"AX c #20B4B4",
"SX c #20B0B0",
"DX c #00A4A4",
"FX c #009898",
"GX c #008C8C",
"HX c #008484",
"JX c #007C7C",
"KX c #007878",
"LX c #007474",
"PX c #007070",
"IX c #006C6C",
"UX c #980088",
/* pixels */
"w w w w w w w w w w w w MXw MXw w w w w w w w MXw w w w w w w w w w MXw w w w w w w w w w w w w w MXw MXw w w w w w w w MXw w w ",
"w w w w MXw w w w w w w w MXw MXw w w w w w w w MXw w w w w w w w w w MXw w w w w MXw w w w w w w w MXw MXw w w w w w w w MXw w ",
"w w w MXw MXw MXw w w MXw w MXw w w w w MXw w w w MXw w w w w MXw w w w MXw w w MXw MXw MXw w w MXw w MXw w w w w MXw w w w MXw ",
"w w w w w w MXw MXw MXw w w w w w w w w MXMXw w MXw w w w w w MXMXw w MXw w w w w w w MXw MXw MXw w w w w w w w w MXMXw w MXw w ",
"cXcXcXcXcXcXcXcXcXcXcXcXcXcXcXcXcXcXcXcXcXcXcXcXcXcXcXcXcXcXcXcXcXcXcXcXcXcXcXcXcXcXcXcXcXcXcXcXcXcXcXcXcXcXcXcXcXcXcXcXcXcXcXcX",
"J.J.J.H.H.H.H.J.J.J.J.J.J.J.J.H.H.H.J.H.J.J.H.J.J.J.J.J.J.H.H.H.H.H.H.J.J.J.J.J.J.J.H.H.H.H.H.H.H.H.H.H.H.H.H.H.H.H.H.H.H.H.H.J.",
"D.F.F.F.D.D.S.S.D.D.F.D.D.F.F.F.D.D.D.S.D.F.F.F.F.F.F.F.F.F.F.F.F.F.F.D.S.S.D.D.F.F.F.G.G.F.F.F.F.F.F.F.D.D.D.D.S.S.S.D.D.D.D.D.",
"F.F.F.D.D.D.S.S.D.F.F.F.D.D.F.F.D.D.D.D.D.F.F.F.F.F.F.F.F.F.F.F.F.F.F.F.D.D.D.D.F.F.F.F.F.F.F.F.F.F.F.F.F.D.D.S.S.S.S.D.F.F.D.F.",
"F.F.D.D.D.D.S.S.D.F.F.F.F.D.F.F.F.F.F.D.D.F.F.F.F.F.F.D.D.D.F.F.F.F.G.G.F.D.D.D.D.D.F.F.F.F.F.F.F.F.F.F.D.S.S.S.S.S.S.D.F.G.F.F.",
"F.D.D.S.D.D.S.S.D.D.F.F.F.F.F.F.F.F.F.D.D.F.F.F.F.F.F.F.D.F.D.F.F.F.F.F.F.D.D.S.S.D.F.F.F.F.F.F.F.F.D.D.S.S.S.S.S.D.D.D.F.G.G.F.",
"D.D.D.D.S.S.D.D.D.F.F.F.F.F.F.F.F.F.F.F.F.F.D.F.F.F.F.F.F.D.D.D.F.F.F.F.F.F.D.D.D.D.D.F.F.F.F.D.D.D.D.S.S.S.D.S.S.S.D.D.F.G.G.G.",
"D.F.D.D.S.S.D.D.F.F.F.F.F.F.D.D.D.D.F.F.D.F.D.D.F.F.F.F.F.D.D.D.D.F.D.F.F.F.F.F.D.D.D.F.F.F.D.D.S.S.D.D.S.S.S.S.S.S.D.D.D.F.F.F.",
"F.F.F.D.D.D.D.F.F.F.F.F.F.F.F.D.D.D.F.D.F.F.D.F.F.F.F.F.F.D.D.S.D.D.D.F.F.F.F.F.F.F.D.D.D.D.D.D.S.S.S.S.S.S.S.S.S.S.D.D.D.D.D.F.",
"F.F.F.D.D.F.F.F.F.F.F.F.F.D.D.D.D.D.D.F.F.F.F.D.D.D.D.D.D.D.S.D.S.D.D.F.F.F.F.F.F.D.D.D.D.D.D.S.S.A.S.S.S.S.S.S.S.S.D.D.D.D.D.F.",
"F.F.F.F.F.F.F.F.F.F.D.D.D.D.D.D.D.D.D.D.F.F.D.D.D.D.D.D.D.D.D.S.S.D.F.F.F.F.F.F.F.D.D.S.S.S.S.S.S.A.A.S.D.D.S.S.S.S.S.D.D.D.D.F.",
"F.F.F.F.F.D.F.D.D.D.D.D.S.D.D.D.F.D.D.D.D.D.D.S.S.S.S.D.D.D.D.D.D.D.F.F.F.F.F.F.D.D.D.S.S.S.S.S.S.S.S.S.D.F.D.S.S.S.S.D.D.F.F.F.",
"D.F.F.F.F.F.F.D.D.S.S.S.S.S.D.D.F.F.D.D.D.D.S.S.S.S.S.D.D.D.D.D.D.D.F.F.F.F.F.F.D.D.D.D.S.S.S.S.S.S.D.D.D.D.D.D.S.D.D.F.F.F.F.F.",
"F.F.F.F.F.D.D.D.D.S.S.S.S.D.D.D.D.F.F.D.S.S.S.S.S.S.S.S.D.D.D.D.D.D.F.F.F.G.G.F.D.D.D.D.D.S.S.S.D.D.D.F.D.D.F.F.D.D.D.D.F.F.F.D.",
"D.F.F.F.F.D.D.D.S.S.S.S.S.S.D.D.D.D.D.S.S.S.S.S.S.S.A.S.D.D.D.D.D.D.F.F.F.F.F.F.F.F.D.D.D.D.S.S.D.F.F.F.D.F.F.F.F.F.D.D.D.F.F.D.",
"D.D.D.D.S.S.S.S.S.S.A.A.S.S.S.S.S.S.A.A.S.S.S.S.S.S.A.S.S.D.D.D.D.D.D.F.F.F.F.F.F.F.F.D.F.F.D.D.D.F.F.F.F.F.F.G.F.F.D.D.D.D.F.F.",
"D.D.D.S.S.S.S.S.S.S.S.A.A.A.A.A.S.S.A.A.S.S.S.A.A.S.A.S.S.D.D.F.D.D.D.F.F.G.G.G.G.F.F.F.F.F.F.D.D.D.F.F.D.D.D.F.F.F.F.F.D.D.F.D.",
"S.S.S.S.S.S.S.S.S.S.S.A.A.A.A.A.S.S.S.S.S.S.S.A.S.S.S.S.S.D.D.D.F.D.D.F.F.G.G.G.G.F.F.D.D.D.D.D.D.D.D.D.F.D.D.F.F.F.F.F.D.S.D.D.",
"S.S.S.S.S.S.A.A.A.A.A.A.A.A.A.A.S.S.S.S.A.A.S.S.S.S.S.S.D.D.D.D.F.F.F.F.F.G.G.G.G.F.F.D.D.S.S.S.D.D.D.F.D.D.D.F.F.F.F.F.D.D.D.S.",
"S.S.S.S.S.A.A.A.A.A.A.S.A.A.A.S.S.S.S.S.A.S.S.S.S.S.S.S.D.D.D.F.F.F.F.F.F.F.G.G.G.G.F.D.D.S.S.S.S.S.D.D.F.D.D.F.F.F.F.F.D.D.S.S.",
"S.S.S.S.S.S.A.A.A.A.A.S.S.S.S.S.S.D.S.S.S.S.S.S.S.D.S.D.D.F.F.F.F.F.F.F.F.F.F.G.G.G.F.D.D.S.S.S.S.D.D.D.F.F.F.D.F.D.D.D.D.S.S.S.",
"S.S.S.S.S.S.S.S.A.A.A.S.S.S.S.D.D.S.S.D.S.S.S.S.S.D.F.F.F.F.F.F.F.F.F.F.F.F.F.F.F.F.F.D.D.S.S.S.S.D.D.F.F.F.D.D.D.D.D.D.S.S.S.S.",
"S.S.S.S.D.D.D.S.S.S.S.S.D.D.D.D.D.D.D.D.S.S.S.S.D.F.F.F.F.F.F.F.F.F.F.F.F.F.F.F.F.F.F.D.D.S.S.S.D.D.F.D.D.D.D.D.S.S.S.S.S.S.S.S.",
"S.S.S.D.D.D.D.S.D.S.S.S.D.D.F.D.D.D.D.D.D.S.D.D.D.F.F.F.G.F.G.F.F.F.F.F.F.D.D.F.F.F.F.F.D.D.D.D.D.D.D.D.D.S.S.S.S.A.S.S.S.S.S.D.",
"D.D.S.D.D.D.D.F.F.D.D.D.D.D.F.D.D.S.S.S.S.D.D.S.D.F.F.F.F.F.F.F.F.F.D.F.F.D.D.F.D.F.F.F.F.F.D.D.S.S.S.S.S.S.A.S.A.A.A.S.S.S.S.S.",
"D.D.D.D.D.D.F.F.F.F.F.F.D.D.D.D.D.S.S.S.S.D.D.D.D.D.D.F.F.F.F.F.F.F.D.F.F.D.F.D.D.D.F.F.F.F.D.D.D.S.S.S.S.S.A.A.A.A.A.A.S.S.S.S.",
"D.D.F.F.D.F.F.F.F.F.F.F.D.D.S.D.D.D.S.S.S.S.S.D.D.D.F.F.F.F.F.F.F.F.F.D.F.F.D.D.D.D.D.F.F.F.D.D.D.S.S.S.A.A.A.A.A.A.S.S.S.S.S.S.",
"D.F.G.G.F.F.F.F.F.D.F.F.D.S.S.S.S.S.S.S.A.S.S.D.D.D.D.D.D.D.F.F.F.F.F.F.D.F.D.D.S.D.D.D.F.F.D.D.S.S.A.A.A.A.A.A.A.S.S.S.S.S.S.D.",
"D.F.F.G.G.F.F.F.D.D.D.F.D.D.S.S.S.S.S.S.S.S.S.S.S.D.D.D.S.D.F.F.F.D.D.F.D.D.D.S.S.S.S.D.D.D.D.D.S.A.A.A.A.S.S.S.S.S.D.S.D.D.D.F.",
"F.F.F.F.G.F.D.D.D.D.D.D.D.D.D.D.S.S.S.S.S.S.S.S.D.D.D.D.D.D.D.F.F.D.D.D.D.S.S.S.S.S.S.S.S.S.D.D.S.S.S.A.S.S.S.D.D.D.D.D.D.D.F.F.",
"F.F.F.F.F.F.F.D.D.D.D.D.F.F.F.D.S.S.S.S.S.S.A.S.S.S.D.F.D.D.F.F.F.F.D.D.S.S.A.A.S.A.S.S.S.D.D.D.D.S.S.S.S.D.D.D.F.D.D.F.F.F.F.F.",
"F.F.F.F.F.F.F.F.D.D.D.D.F.F.F.F.D.D.S.S.S.S.S.S.S.S.D.F.F.F.F.F.F.F.D.S.S.A.A.A.A.S.S.S.D.D.D.D.F.D.D.D.D.D.D.D.F.F.F.F.F.F.F.F.",
"F.F.D.F.F.F.G.F.F.F.D.D.D.F.F.F.D.D.S.S.S.D.S.S.S.S.D.F.F.F.F.F.F.F.D.S.S.S.A.S.S.S.S.D.D.D.D.F.F.F.F.D.D.D.D.F.F.F.F.F.G.F.F.F.",
"D.D.F.F.F.F.G.G.F.D.D.D.D.D.D.F.D.D.S.S.S.S.D.S.S.S.S.F.G.F.F.F.F.D.D.S.S.S.S.S.S.S.S.D.F.F.F.F.F.F.F.F.F.D.D.F.D.F.F.F.F.F.F.F.",
"D.D.F.F.F.F.F.G.G.F.D.D.D.D.D.D.D.D.D.S.S.D.D.D.D.S.S.F.F.F.F.F.D.D.D.D.S.S.S.S.S.S.D.D.F.G.F.D.F.F.F.F.F.F.F.D.D.D.D.D.F.D.F.F.",
"0 0 0 0 0 0 0 0 0 0 0 0 0 0 0 0 0 0 0 0 0 0 0 0 0 0 0 0 0 0 0 0 0 0 0 0 0 0 0 0 0 0 0 0 0 0 0 0 0 0 0 0 0 0 0 0 0 0 0 0 0 0 0 0 ",
"w w MXw w MXMXw w w w w w w w w MXw MXw MXw w w w w w w MXw w MXMXw w w w w w MXw w MXMXw w w w w w w w w MXw MXw MXw w w w w w ",
"w MXw w w w MXw w w w w MXw w MXw w w MXw MXw MXw w w MXw w w w MXw w w w w MXw w w w MXw w w w w MXw w MXw w w MXw MXw MXw w w ",
"w w MXw w w w w w w w MXw MXw w w w w w w w MXw w w w w MXw w w w w w w w w w MXw w w w w w w w MXw MXw w w w w w w w MXw w w w ",
"w w w MXw w w w w w w w MXw MXw w w w w w w w w w w w w w MXw w w w w w w w w w MXw w w w w w w w MXw MXw w w w w w w w w w w w ",
"w w w MXw MXw MXw w w MXw w MXw w w w w MXw w w w MXw w w w w MXw w w w MXw w w MXw MXw MXw w w MXw w MXw w w w w MXw w w w MXw ",
"                                                                                                                                ",
"cXcXcXcXcXcXcXcXcXcXcXcXcXcXcXcXcXcXcXcXcXcXcXcXcXcXcXcXcXcXcXcXcXcXcXcXcXcXcXcXcXcXcXcXcXcXcXcXcXcXcXcXcXcXcXcXcXcXcXcXcXcXcXcX",
"cXcXcXcXcXcXcXcXcXcXcXcXcXcXcXcXcXcXcXcXcXcXcXcXcXcXcXcXcXcXcXcXcXcXcXcXcXcXcXcXcXcXcXcXcXcXcXcXcXcXcXcXcXcXcXcXcXcXcXcXcXcXcXcX",
"cXmXq q nX$ $ $ $ $ $ $ $ $ $ $ $ $ $ $ $ $ $ $ $ $ nXq q mX  cXcXmXq q nX$ $ $ $ $ $ $ $ $ $ $ $ $ $ $ $ $ $ $ $ $ nXq q mX  cX",
"cXe bX$ $ nXq $ bX$ $ q mXq 0 $ $ bXbXbX0 0 mX0 nXnXnXq e w   cXcXe 0 $ $ $ 0 mXw mX0 q nX0 nXe q mX$ nX$ 0 0 0 0 e w e cXw   cX",
"cXe 7 0 0 q 0 0 bX0 $ mXw w 0 q $ $ $ nXq 0 q nXq nXnXmXcXw   cXcXe nX7 $ bX0 q e nXq q nXnXw w 0 mXnXq 0 $ bX$ q q w e e w   cX",
"cXe bX0 $ nX0 nX$ nXnXq mXw mX0 $ 0 nXnX0 $ nXq w 0 q e cXw   cXcXe nX$ 0 $ $ nXe w q w nXmXw nX$ q nXnX$ bXbXnX0 q w w w w   cX",
"cXe $ 0 $ bX0 $ q 0 nXnXq mXnX0 $ 0 nX0 0 0 nXmXw 0 q w e w   cXcXe $ 0 0 $ bXnXmXq mXq nXq mXq 0 nXmXnX$ $ bXnX0 0 mXe q w   cX",
"cXe $ $ bXbXbX0 $ q $ w q q q 0 bXq nX0 0 0 $ q q 0 w w w w   cXcXe $ 0 0 $ nXq q mXw 0 q nXnXnX$ 0 mX0 nX0 0 0 nX0 q e w w   cX",
"cXe 0 $ $ bXbXbX0 q $ w q q mXnX$ mX0 nX0 q 0 0 nXq q w mXw   cXcXe $ 0 0 bXnXnXq w mX0 q 0 0 q nX0 mX$ w q nX0 nX$ q w mXw   cX",
"cXe 0 0 bXbXbXbXq mXnXe 0 q q 0 $ q q 0 q mX0 $ q nXnXw q w   cXcXe 7 $ $ bX0 q mXw q q nX0 0 mX0 q q 0 mXq 0 nX0 bX0 nXq w   cX",
"cXe 0 bX$ bX$ $ nXw q q nX0 mX0 nXw q 0 q 0 0 0 0 0 q e mXw   cXcXe bXbXbX$ 0 q w cXw e nXnX0 0 $ mXq nXq q $ 0 $ 7 $ $ mXw   cX",
"cXe nX$ $ $ bX$ q mXq nXnXnXnX0 q w mX0 nXnXnX0 0 0 q w q w   cXcXe bXbX$ bXq nXnXmXw cX0 nXmX0 0 q w 0 q 0 0 q $ bX$ $ nXw   cX",
"cXe 0 bX$ 0 $ $ mXq 0 q q nXnXq mXe mX0 q q nX$ 0 0 q w e w   cXcXe bXbX$ $ nXnX$ nXq w mXmXe 0 0 $ w nXq nX0 0 bX$ 0 $ nXw   cX",
"cXe 0 $ bX0 bXnXnXnXq q q nX0 q w cXnX0 nX0 $ 0 0 0 q mXq w   cXcXe $ bX$ 0 $ q $ 0 q w mXw w 0 0 nXnXq w nX$ 0 $ $ 0 0 q w   cX",
"cXcXcXcXcXcXcXcXcXcXcXcXcXcXcXcXcXcXcXcXcXcXcXcXcXcXcXcXcXcX  cXcXcXcXcXcXcXcXcXcXcXcXcXcXcXcXcXcXcXcXcXcXcXcXcXcXcXcXcXcXcX  cX",
"cX                                                            cXcX                                                            cX"
};
