/* XPM */
static char *moemon2[] = {
/* columns rows colors chars-per-pixel */
"128 128 16 1 ",
"  c #101010",
". c gray17",
"X c #72270D",
"o c #9C3918",
"O c #D54A31",
"+ c #B0755F",
"@ c #DD7F7F",
"# c #FFDE5A",
"$ c #4A4A83",
"% c #7B73B4",
"& c #E5BEAC",
"* c #A49CDE",
"= c #CACACA",
"- c #F0E0D9",
"; c white",
": c None",
/* pixels */
"::::::::::::::::::::::::::::::::::::::::::::::::::::::::::::::::::::::::::::::::::::::::::::::::::::::::::::::::::::::::::::::::",
"::::::::::::::::::::::::::::::::::::::::::::::::::::::::::::::::::::::::::::::::::::::::::::::::::::::::::::::::::::::::::::::::",
"::::::::::::::::::::::::::::::::::::::::::          ::::::::::::::::::::::::          ::::::::::::::::::::::::::::::::::::::::::",
"::::::::::::::::::::::::::::::::::::::::::          ::::::::::::::::::::::::          ::::::::::::::::::::::::::::::::::::::::::",
"::::::::::::::::::::::::::::::::::::::::  $$******%%  ::::::::::::::::::::  $$******%%  ::::::::::::::::::::::::::::::::::::::::",
"::::::::::::::::::::::::::::::::::::::::  $$******%%  ::::::::::::::::::::  $$******%%  ::::::::::::::::::::::::::::::::::::::::",
"::::::::::::::::::::::::::::::::::::$$  $$%%......**%%  ::$$$$$$$$$$$$$$  $$$$  ....**%%  $$$$::::::::::::::::::::::::::::::::::",
"::::::::::::::::::::::::::::::::::::$$  $$%%......**%%  ::$$$$$$$$$$$$$$  $$$$  ....**%%  $$$$::::::::::::::::::::::::::::::::::",
"::::::::::::::::::::::::::::::::::$$%%  $$  ooOOOO..**  $$%%%%%%%%%%%%%%%%    ooOOOO..**  %%$$$$::::::::::::::::::::::::::::::::",
"::::::::::::::::::::::::::::::::::$$%%  $$  ooOOOO..**  $$%%%%%%%%%%%%%%%%    ooOOOO..**  %%$$$$::::::::::::::::::::::::::::::::",
"::::::::::::::::::::::::::::::::$$**%%  $$  oo  OO..**  %%%%****************%%    OO..**    ::$$::::::::::::::::::::::::::::::::",
"::::::::::::::::::::::::::::::::$$**%%  $$  oo  OO..**  %%%%****************%%    OO..**    ::$$::::::::::::::::::::::::::::::::",
"::::::::::::::::::::::::::::::$$**      $$  oooooo..**  %%%%******************%%  oo  $$  **$$::::::::::::::::::::::::::::::::::",
"::::::::::::::::::::::::::::::$$**      $$  oooooo..**  %%%%******************%%  oo  $$  **$$::::::::::::::::::::::::::::::::::",
"::::::::::::::::::::::::::::::$$  ::    $$$$      %%$$  %%**********************%%  $$$$  %%**$$::::::::::::::::::::::::::::::::",
"::::::::::::::::::::::::::::::$$  ::    $$$$      %%$$  %%**********************%%  $$$$  %%**$$::::::::::::::::::::::::::::::::",
"::::::::::::::::::::::::::::::$$$$::  %%  $$$$$$$$$$  %%%%********************;;**%%    %%    $$$$$$::::::::::::::::::::::::::::",
"::::::::::::::::::::::::::::::$$$$::  %%  $$$$$$$$$$  %%%%********************;;**%%    %%    $$$$$$::::::::::::::::::::::::::::",
"::::::::::::::::::::::::::::::$$::  ****%%          %%%%%%****;;****;;;;**;;******%%  %%**%%  ::::::::::::::::::::::::::::::::::",
"::::::::::::::::::::::::::::::$$::  ****%%          %%%%%%****;;****;;;;**;;******%%  %%**%%  ::::::::::::::::::::::::::::::::::",
"::::::::::::::::::::::::::::::$$$$**%%**  %%%%  %%%%%%%%      ************    %%****$$%%  ****$$$$::::::::::::::::::::::::::::::",
"::::::::::::::::::::::::::::::$$$$**%%**  %%%%  %%%%%%%%      ************    %%****$$%%  ****$$$$::::::::::::::::::::::::::::::",
"::::::::::::::::::::::::::$$$$$$    **%%  %%%%  %%%%%%%%%%%%%%  **%%****  %%****%%**%%$$%%    $$$$$$$$::::::::::::::::::::::::::",
"::::::::::::::::::::::::::$$$$$$    **%%  %%%%  %%%%%%%%%%%%%%  **%%****  %%****%%**%%$$%%    $$$$$$$$::::::::::::::::::::::::::",
"::::::::::::::::::::::::::::::::$$**%%  %%%%%%  $$%%%%%%%%%%%%%%**%%******%%****%%**%%$$%%%%%%$$::::::::::::::::::::::::::::::::",
"::::::::::::::::::::::::::::::::$$**%%  %%%%%%  $$%%%%%%%%%%%%%%**%%******%%****%%**%%$$%%%%%%$$::::::::::::::::::::::::::::::::",
"::::::::::::::::::::::::::::::$$%%    %%%%%%  $$$$%%$$%%%%&&&&%%**&&%%****&&%%**$$****$$%%%%%%$$::::::::::::::::::::::::::::::::",
"::::::::::::::::::::::::::::::$$%%    %%%%%%  $$$$%%$$%%%%&&&&%%**&&%%****&&%%**$$****$$%%%%%%$$::::::::::::::::::::::::::::::::",
"::::::::::::::::::::::::::::$$$$  %%%%%%%%  $$%%$$%%          &&**----%%&&        ****$$%%%%%%**$$::::::::::::::::::::::::::::::",
"::::::::::::::::::::::::::::$$$$  %%%%%%%%  $$%%$$%%          &&**----%%&&        ****$$%%%%%%**$$::::::::::::::::::::::::::::::",
"::::::::::::::::::::::::::::::$$%%****%%    %%$$$$%%$$  XXXX;;  ------&&  XX;;  $$****$$  %%%%**$$::::::::::::::::::::::::::::::",
"::::::::::::::::::::::::::::::$$%%****%%    %%$$$$%%$$  XXXX;;  ------&&  XX;;  $$****$$  %%%%**$$::::::::::::::::::::::::::::::",
"::::::::::::::::::::::::::$$$$******%%  ::  %%%%$$%%%%  OOXXoo==--------OOXXoo;;$$%%**$$  %%%%%%**$$::::::::::::::::::::::::::::",
"::::::::::::::::::::::::::$$$$******%%  ::  %%%%$$%%%%  OOXXoo==--------OOXXoo;;$$%%**$$  %%%%%%**$$::::::::::::::::::::::::::::",
"::::::::::::::::::::::$$$$%%%%%%**%%$$::::::  %%$$%%%%$$&&OOOO;;--------&&OOOO&&$$%%**$$::  %%%%****$$::::::::::::::::::::::::::",
"::::::::::::::::::::::$$$$%%%%%%**%%$$::::::  %%$$%%%%$$&&OOOO;;--------&&OOOO&&$$%%**$$::  %%%%****$$::::::::::::::::::::::::::",
"::::::::::::::::::::$$%%%%%%$$****$$::::::::  %%$$$$%%$$@@@@@@&&----------@@@@@@$$%%**$$::  %%%%%%****$$$$::::::::::::::::::::::",
"::::::::::::::::::::$$%%%%%%$$****$$::::::::  %%$$$$%%$$@@@@@@&&----------@@@@@@$$%%**$$::  %%%%%%****$$$$::::::::::::::::::::::",
"::::::::::::::::::$$**%%%%$$****$$::    ::::::  $$$$%%$$@@@@&&&&&&&&&&------@@@@$$%%****$$::  %%%%******%%$$$$::::::::::::::::::",
"::::::::::::::::::$$**%%%%$$****$$::    ::::::  $$$$%%$$@@@@&&&&&&&&&&------@@@@$$%%****$$::  %%%%******%%$$$$::::::::::::::::::",
"::::::::::::::::$$**%%%%::$$**$$::  --++  ::::::    %%$$&&&&&&&&++@@@@++----..  ..$$%%**$$::  %%%%%%********%%$$$$::::::::::::::",
"::::::::::::::::$$**%%%%::$$**$$::  --++  ::::::    %%$$&&&&&&&&++@@@@++----..  ..$$%%**$$::  %%%%%%********%%$$$$::::::::::::::",
"::::::::::::::::$$**%%::$$**%%$$::  ----  ::::::::  $$%%$$&&&&&&@@@@@@++--    ..  ..$$****$$::  %%  ******%%%%%%**$$::::::::::::",
"::::::::::::::::$$**%%::$$**%%$$::  ----  ::::::::  $$%%$$&&&&&&@@@@@@++--    ..  ..$$****$$::  %%  ******%%%%%%**$$::::::::::::",
"::::::::::::::$$**%%::$$****$$::::::  ----  ::::::::  %%%%$$++&&&&@@@@&&&&  ..  ..  ::$$$$::::  %%$$  ******$$%%%%**$$::::::::::",
"::::::::::::::$$**%%::$$****$$::::::  ----  ::::::::  %%%%$$++&&&&@@@@&&&&  ..  ..  ::$$$$::::  %%$$  ******$$%%%%**$$::::::::::",
"::::::::::::::$$**%%::$$****$$::::::  ++&&&&        ::  %%%%$$++++&&&&&&++    ..        ::::::  %%$$::$$******$$%%**$$::::::::::",
"::::::::::::::$$**%%::$$****$$::::::  ++&&&&        ::  %%%%$$++++&&&&&&++    ..        ::::::  %%$$::$$******$$%%**$$::::::::::",
"::::::::::::::$$**%%$$****%%$$::::::    ++&&++&&--        %%$$oo%%%%%%%%XX++..    &&++++  ::::  %%$$::::$$****  %%%%  ::::::::::",
"::::::::::::::$$**%%$$****%%$$::::::    ++&&++&&--        %%$$oo%%%%%%%%XX++..    &&++++  ::::  %%$$::::$$****  %%%%  ::::::::::",
"::::::::::::::$$%%%%$$****$$::::::  ++--++++++&&    &&--&&      oo%%%%**XXoo++XX++++&&&&--  ::  %%  ::::$$**%%  %%%%  ::::::::::",
"::::::::::::::$$%%%%$$****$$::::::  ++--++++++&&    &&--&&      oo%%%%**XXoo++XX++++&&&&--  ::  %%  ::::$$**%%  %%%%  ::::::::::",
"::::::::::::::$$%%%%$$****$$::::::  --++&&&&++++$$**$$----&&$$XXooOO**XXoooo&&  &&++&&++++  ::  $$::::::$$**%%  %%  ::::::::::::",
"::::::::::::::$$%%%%$$****$$::::::  --++&&&&++++$$**$$----&&$$XXooOO**XXoooo&&  &&++&&++++  ::  $$::::::$$**%%  %%  ::::::::::::",
"::::::::::::::::$$%%$$****$$::::::  ++&&++++++&&&&$$**$$&&$$%%##XXOOOOXXoo$$++&&    ++XX  --    $$::::::$$**%%  $$::::::::::::::",
"::::::::::::::::$$%%$$****$$::::::  ++&&++++++&&&&$$**$$&&$$%%##XXOOOOXXoo$$++&&    ++XX  --    $$::::::$$**%%  $$::::::::::::::",
"::::::::::::::::  %%$$****$$::::::::  ++++      &&$$**$$++$$****##XXOOOOXX%%$$&&&&$$  XX  --      ::::::$$**$$::::::::::::::::::",
"::::::::::::::::  %%$$****$$::::::::  ++++      &&$$**$$++$$****##XXOOOOXX%%$$&&&&$$  XX  --      ::::::$$**$$::::::::::::::::::",
"::::::::::::::::::  $$%%**$$::::::::::    $$%%$$$$$$%%%%$$%%******##XXOOXX%%$$++$$****    --    ::::::::$$%%$$::::::::::::::::::",
"::::::::::::::::::  $$%%**$$::::::::::    $$%%$$$$$$%%%%$$%%******##XXOOXX%%$$++$$****    --    ::::::::$$%%$$::::::::::::::::::",
"::::::::::::::::::::  %%**$$::::::::::::::$$%%$$$$$$%%$$%%**********XXooOO%%$$  $$%%**&&----  ::::::::$$%%  ::::::::::::::::::::",
"::::::::::::::::::::  %%**$$::::::::::::::$$%%$$$$$$%%$$%%**********XXooOO%%$$  $$%%**&&----  ::::::::$$%%  ::::::::::::::::::::",
"::::::::::::::::::::::$$**%%$$::::::::::::$$**$$$$%%$$$$%%%%********##XXOO%%$$::$$%%%%&&&&--  ::::::::$$  ::::::::::::::::::::::",
"::::::::::::::::::::::$$**%%$$::::::::::::$$**$$$$%%$$$$%%%%********##XXOO%%$$::$$%%%%&&&&--  ::::::::$$  ::::::::::::::::::::::",
"::::::::::::::::::::::$$%%**$$::::::::::::$$**$$$$%%$$::$$%%%%******%%XXoo$$::::$$%%%%$$&&&&  ::::::::$$::::::::::::::::::::::::",
"::::::::::::::::::::::$$%%**$$::::::::::::$$**$$$$%%$$::$$%%%%******%%XXoo$$::::$$%%%%$$&&&&  ::::::::$$::::::::::::::::::::::::",
"::::::::::::::::::::::::$$%%$$::::::::::::$$**$$$$$$::::XXXXXXXXXXXXXXooooXX::::::$$%%$$    $$::::::::  ::::::::::::::::::::::::",
"::::::::::::::::::::::::$$%%$$::::::::::::$$**$$$$$$::::XXXXXXXXXXXXXXooooXX::::::$$%%$$    $$::::::::  ::::::::::::::::::::::::",
"::::::::::::::::::::::::::  %%$$::::::::::::$$****$$::::XXooooooooOOOOOOOOXX::::::$$%%%%$$$$$$::::::::::::::::::::::::::::::::::",
"::::::::::::::::::::::::::  %%$$::::::::::::$$****$$::::XXooooooooOOOOOOOOXX::::::$$%%%%$$$$$$::::::::::::::::::::::::::::::::::",
"::::::::::::::::::::::::::::  $$::::::::::::::$$$$::::::          ..........::::::::$$%%$$$$$$::::::::::::::::::::::::::::::::::",
"::::::::::::::::::::::::::::  $$::::::::::::::$$$$::::::          ..........::::::::$$%%$$$$$$::::::::::::::::::::::::::::::::::",
"::::::::::::::::::::::::::::::::::::::::::::::::::::::::XXoooooo    ..    OOXX::::::::$$****$$::::::::::::::::::::::::::::::::::",
"::::::::::::::::::::::::::::::::::::::::::::::::::::::::XXoooooo    ..    OOXX::::::::$$****$$::::::::::::::::::::::::::::::::::",
"::::::::::::::::::::::::::::::::::::::::::::::::::::::XXoooooo              XX::::::::::$$$$::::::::::::::::::::::::::::::::::::",
"::::::::::::::::::::::::::::::::::::::::::::::::::::::XXoooooo              XX::::::::::$$$$::::::::::::::::::::::::::::::::::::",
"::::::::::::::::::::::::::::::::::::::::::::::::::::::$$$$$$$$      $$      $$$$::::::::::::::::::::::::::::::::::::::::::::::::",
"::::::::::::::::::::::::::::::::::::::::::::::::::::::$$$$$$$$      $$      $$$$::::::::::::::::::::::::::::::::::::::::::::::::",
"::::::::::::::::::::::::::::::::::::::::::::::::::::$$%%%%**$$      $$      $$%%$$::::::::::::::::::::::::::::::::::::::::::::::",
"::::::::::::::::::::::::::::::::::::::::::::::::::::$$%%%%**$$      $$      $$%%$$::::::::::::::::::::::::::::::::::::::::::::::",
"::::::::::::::::::::::::::::::::::::::::::::::::::$$%%%%%%**%%$$$$%%$$$$$$%%%%%%**$$::::::::::::::::::::::::::::::::::::::::::::",
"::::::::::::::::::::::::::::::::::::::::::::::::::$$%%%%%%**%%$$$$%%$$$$$$%%%%%%**$$::::::::::::::::::::::::::::::::::::::::::::",
"::::::::::::::::::::::::::::::::::::::::::::::::$$%%**%%**%%%%**%%**$$**$$%%**%%%%**$$$$::::::::::::::::::::::::::::::::::::::::",
"::::::::::::::::::::::::::::::::::::::::::::::::$$%%**%%**%%%%**%%**$$**$$%%**%%%%**$$$$::::::::::::::::::::::::::::::::::::::::",
"::::::::::::::::::::::::::::::::::::::::::::::$$****%%**%%%%****%%**%%**%%%%****%%%%%%**$$::::::::::::::::::::::::::::::::::::::",
"::::::::::::::::::::::::::::::::::::::::::::::$$****%%**%%%%****%%**%%**%%%%****%%%%%%**$$::::::::::::::::::::::::::::::::::::::",
"::::::::::::::::::::::::::::::::::::::::::  ##******%%**%%%%****%%**%%****%%%%%%..%%$$##  ::::::::::::::::::::::::::::::::::::::",
"::::::::::::::::::::::::::::::::::::::::::  ##******%%**%%%%****%%**%%****%%%%%%..%%$$##  ::::::::::::::::::::::::::::::::::::::",
"::::::::::::::::::::::::::::::::::::::::::    ##$$$$**%%%%**%%******%%%%**%%%%$$####$$$$  ::::::::::::::::::::::::::::::::::::::",
"::::::::::::::::::::::::::::::::::::::::::    ##$$$$**%%%%**%%******%%%%**%%%%$$####$$$$  ::::::::::::::::::::::::::::::::::::::",
"::::::::::::::::::::::::::::::::::::::::::::    ##$$##$$%%**$$##**%%**$$%%####    ##    ::::::::::::::::::::::::::::::::::::::::",
"::::::::::::::::::::::::::::::::::::::::::::    ##$$##$$%%**$$##**%%**$$%%####    ##    ::::::::::::::::::::::::::::::::::::::::",
"::::::::::::::::::::::::::::::::::::::::::::::    ##  ####$$    ##$$##  ##      &&    ::::::::::::::::::::::::::::::::::::::::::",
"::::::::::::::::::::::::::::::::::::::::::::::    ##  ####$$    ##$$##  ##      &&    ::::::::::::::::::::::::::::::::::::::::::",
"::::::::::::::::::::::::::::::::::::::::::::::::            ##              &&  &&&&  ::::::::::::::::::::::::::::::::::::::::::",
"::::::::::::::::::::::::::::::::::::::::::::::::            ##              &&  &&&&  ::::::::::::::::::::::::::::::::::::::::::",
"::::::::::::::::::::::::::::::::::::::::::::::::  &&&&      ++::::      ++&&&&  &&&&++::::::::::::::::::::::::::::::::::::::::::",
"::::::::::::::::::::::::::::::::::::::::::::::::  &&&&      ++::::      ++&&&&  &&&&++::::::::::::::::::::::::::::::::::::::::::",
"::::::::::::::::::::::::::::::::::::::::::::::++&&--&&  &&&&++::::::::::::++&&&&  --&&++::::::::::::::::::::::::::::::::::::::::",
"::::::::::::::::::::::::::::::::::::::::::::::++&&--&&  &&&&++::::::::::::++&&&&  --&&++::::::::::::::::::::::::::::::::::::::::",
"::::::::::::::::::::::::::::::::::::::::::::::++&&--  &&&&++::::::::::::::++&&&&  --&&++::::::::::::::::::::::::::::::::::::::::",
"::::::::::::::::::::::::::::::::::::::::::::::++&&--  &&&&++::::::::::::::++&&&&  --&&++::::::::::::::::::::::::::::::::::::::::",
"::::::::::::::::::::::::::::::::::::::::::::::    &&  &&&&++::::::::::::::::++&&        ::::::::::::::::::::::::::::::::::::::::",
"::::::::::::::::::::::::::::::::::::::::::::::    &&  &&&&++::::::::::::::::++&&        ::::::::::::::::::::::::::::::::::::::::",
"::::::::::::::::::::::::::::::::::::::::::::::        &&++::::::::::::::::::++&&        ::::::::::::::::::::::::::::::::::::::::",
"::::::::::::::::::::::::::::::::::::::::::::::        &&++::::::::::::::::::++&&        ::::::::::::::::::::::::::::::::::::::::",
"::::::::::::::::::::::::::::::::::::::::::::::  ..        ::::::::::::::::::::    ....    ::::::::::::::::::::::::::::::::::::::",
"::::::::::::::::::::::::::::::::::::::::::::::  ..        ::::::::::::::::::::    ....    ::::::::::::::::::::::::::::::::::::::",
"::::::::::::::::::::::::::::::::::::::::::::    ....    ::::::::::::::::::::::    ......  ::::::::::::::::::::::::::::::::::::::",
"::::::::::::::::::::::::::::::::::::::::::::    ....    ::::::::::::::::::::::    ......  ::::::::::::::::::::::::::::::::::::::",
"::::::::::::::::::::::::::::::::::::::::::::    ....    ::::::::::::::::::::::      ....  ::::::::::::::::::::::::::::::::::::::",
"::::::::::::::::::::::::::::::::::::::::::::    ....    ::::::::::::::::::::::      ....  ::::::::::::::::::::::::::::::::::::::",
"::::::::::::::::::::::::::::::::::::::::::::  ....    ::::::::::::::::::::::::::    ....  ::::::::::::::::::::::::::::::::::::::",
"::::::::::::::::::::::::::::::::::::::::::::  ....    ::::::::::::::::::::::::::    ....  ::::::::::::::::::::::::::::::::::::::",
"::::::::::::::::::::::::::::::::::::::::::::  ....    ::::::::::::::::::::::::::    ....    ::::::::::::::::::::::::::::::::::::",
"::::::::::::::::::::::::::::::::::::::::::::  ....    ::::::::::::::::::::::::::    ....    ::::::::::::::::::::::::::::::::::::",
"::::::::::::::::::::::::::::::::::::::::::::  ....    ::::::::::::::::::::::::::      ....  ::::::::::::::::::::::::::::::::::::",
"::::::::::::::::::::::::::::::::::::::::::::  ....    ::::::::::::::::::::::::::      ....  ::::::::::::::::::::::::::::::::::::",
"::::::::::::::::::::::::::::::::::::::::::::  ....    ::::::::::::::::::::::::::      ....XX::::::::::::::::::::::::::::::::::::",
"::::::::::::::::::::::::::::::::::::::::::::  ....    ::::::::::::::::::::::::::      ....XX::::::::::::::::::::::::::::::::::::",
"::::::::::::::::::::::::::::::::::::::::::::XX......XX::::::::::::::::::::::::::XX      ooXX::::::::::::::::::::::::::::::::::::",
"::::::::::::::::::::::::::::::::::::::::::::XX......XX::::::::::::::::::::::::::XX      ooXX::::::::::::::::::::::::::::::::::::",
"::::::::::::::::::::::::::::::::::::::::::::XXooOOOOOOXX::::::::::::::::::::::XXOOOOOOooXXXX::::::::::::::::::::::::::::::::::::",
"::::::::::::::::::::::::::::::::::::::::::::XXooOOOOOOXX::::::::::::::::::::::XXOOOOOOooXXXX::::::::::::::::::::::::::::::::::::",
"::::::::::::::::::::::::::::::::::::::::::::XXooooooOOXX::::::::::::::::::::::XXOOooooooXXXX::::::::::::::::::::::::::::::::::::",
"::::::::::::::::::::::::::::::::::::::::::::XXooooooOOXX::::::::::::::::::::::XXOOooooooXXXX::::::::::::::::::::::::::::::::::::",
"::::::::::::::::::::::::::::::::::::::::::::::XXXXXXXX::::::::::::::::::::::::::XXXXXXXX::::::::::::::::::::::::::::::::::::::::",
"::::::::::::::::::::::::::::::::::::::::::::::XXXXXXXX::::::::::::::::::::::::::XXXXXXXX::::::::::::::::::::::::::::::::::::::::"
};
